<svg width="421" height="120" viewBox="0 0 421 120" fill="none" xmlns="http://www.w3.org/2000/svg">
<path d="M60.1724 114.7C60.1724 117.756 57.6973 120.259 54.6632 119.979C48.6641 119.424 42.7716 117.967 37.1864 115.648C29.8989 112.621 23.2773 108.184 17.6998 102.591C12.1222 96.9977 7.69777 90.3577 4.6792 83.05C1.66063 75.7422 0.106995 67.9098 0.106995 60C0.106995 52.0902 1.66063 44.2578 4.6792 36.95C7.69777 29.6423 12.1222 23.0023 17.6998 17.4092C23.2773 11.8161 29.8989 7.37945 37.1864 4.35249C42.7716 2.03258 48.6641 0.575557 54.6632 0.0214544C57.6973 -0.258784 60.1724 2.24443 60.1724 5.29979V31.1851C44.3024 31.1851 31.4373 44.0861 31.4373 60.0002C31.4373 75.9141 44.3021 88.8149 60.1718 88.8153L60.1724 31.1851C76.0424 31.1851 88.907 44.0861 88.907 60.0003C88.907 75.9142 76.0415 88.815 60.1718 88.8153L60.1724 114.7Z" fill="black"/>
<path d="M60.108 88.7999L60.1074 31.1999C76.0132 31.1999 88.907 44.0945 88.907 60.0003C88.907 75.9059 76.0135 88.7995 60.108 88.7999Z" fill="black"/>
<path d="M60.177 90.8214V114.701C60.177 117.761 57.707 120.261 54.667 119.981C48.667 119.431 42.777 117.971 37.187 115.651C29.897 112.621 23.277 108.191 17.697 102.591C12.117 97.0014 7.69699 90.3614 4.67699 83.0514C1.65699 75.7414 0.106995 67.9114 0.106995 60.0014C0.106995 52.0914 1.65699 44.2614 4.67699 36.9514C7.69699 29.6414 12.117 23.0014 17.697 17.4114C23.277 11.8214 29.897 7.38144 37.187 4.35144C42.777 2.03144 48.677 0.581444 54.677 0.0214435C57.707 -0.258556 60.187 2.24144 60.187 5.30144V31.1914C44.317 31.1914 31.447 44.0914 31.447 60.0114C31.447 75.9314 44.307 88.8214 60.177 88.8314" fill="black"/>
<path d="M60.1122 89.0532L60.1116 31.0769C76.1213 31.0769 89.0997 44.0553 89.0997 60.0651C89.0997 76.0746 76.1216 89.0529 60.1122 89.0532Z" fill="black"/>
<path d="M389.93 57.5727C389.93 59.0485 390.738 60.173 392.354 60.946C394.041 61.6488 396.677 62.3867 400.261 63.1598C404.337 64.0031 407.745 64.9519 410.486 66.006C413.227 67.0602 415.581 68.7469 417.549 71.066C419.587 73.3149 420.606 76.372 420.606 80.2372C420.606 83.6808 419.552 86.6676 417.444 89.1976C415.405 91.7276 412.665 93.6603 409.221 94.9955C405.777 96.2605 402.018 96.893 397.941 96.893C392.39 96.893 387.611 95.8389 383.605 93.7305C379.669 91.6222 376.753 88.6003 374.855 84.6647L385.608 79.0777C387.505 83.9268 391.617 86.3514 397.941 86.3514C400.682 86.3514 403.037 85.8243 405.004 84.7702C406.972 83.716 407.956 82.205 407.956 80.2372C407.956 78.5506 407.042 77.3207 405.215 76.5477C403.458 75.7043 400.577 74.7907 396.571 73.8068C392.425 72.823 389.051 71.8391 386.451 70.8552C383.851 69.8713 381.602 68.3603 379.704 66.3223C377.807 64.214 376.858 61.438 376.858 57.9944C376.858 54.6211 377.807 51.7045 379.704 49.2448C381.602 46.7148 384.167 44.7822 387.4 43.4469C390.633 42.1117 394.182 41.444 398.047 41.444C402.615 41.444 406.691 42.3928 410.275 44.2903C413.93 46.1877 416.741 48.8934 418.709 52.4073L408.061 57.7836C406.234 53.848 402.896 51.8802 398.047 51.8802C395.587 51.8802 393.619 52.4073 392.144 53.4615C390.668 54.4454 389.93 55.8158 389.93 57.5727Z" fill="black"/>
<path d="M348.03 41.444C353.09 41.444 357.623 42.709 361.629 45.239C365.705 47.6987 368.868 51.0369 371.117 55.2536C373.365 59.4702 374.49 64.1437 374.49 69.2739C374.49 70.9606 374.349 72.5067 374.068 73.9123H333.377C334.432 77.637 336.294 80.5535 338.965 82.6618C341.635 84.6999 345.044 85.7189 349.19 85.7189C351.72 85.7189 354.144 85.1567 356.464 84.0322C358.853 82.9078 360.645 81.4671 361.84 79.7102L371.854 85.6135C369.395 89.2679 366.197 92.079 362.262 94.0468C358.396 95.9443 353.934 96.893 348.874 96.893C343.251 96.893 338.262 95.6983 333.905 93.3089C329.547 90.9194 326.174 87.6164 323.785 83.3997C321.465 79.1831 320.306 74.4393 320.306 69.1685C320.306 63.968 321.465 59.2594 323.785 55.0427C326.174 50.8261 329.477 47.523 333.694 45.1336C337.91 42.6739 342.689 41.444 348.03 41.444ZM362.262 63.6869C361.699 60.3135 360.118 57.6781 357.518 55.7806C354.988 53.8129 351.79 52.829 347.925 52.829C345.254 52.829 342.795 53.3209 340.546 54.3048C338.367 55.2887 336.61 56.624 335.275 58.3106C333.94 59.9973 333.237 61.7894 333.167 63.6869H362.262Z" fill="black"/>
<path d="M313.37 80.6593C313.37 81.7838 313.651 82.592 314.214 83.0839C314.776 83.5758 315.654 83.8218 316.849 83.8218C317.763 83.8218 318.852 83.7164 320.117 83.5056V95.523C317.517 95.9447 315.092 96.1555 312.843 96.1555C308.767 96.1555 305.64 95.1014 303.461 92.993C301.353 90.8144 300.299 86.9843 300.299 81.5026V21.7316H313.37V80.6593Z" fill="black"/>
<path d="M297.183 85.2988C294.582 88.8829 291.314 91.7292 287.379 93.8375C283.443 95.9458 279.192 97 274.623 97C269.634 97 264.995 95.7701 260.709 93.3104C256.492 90.7804 253.119 87.4071 250.589 83.1905C248.129 78.9035 246.899 74.2652 246.899 69.2755C246.899 64.2858 248.129 59.6826 250.589 55.4659C253.119 51.179 256.492 47.8057 260.709 45.346C264.995 42.816 269.634 41.551 274.623 41.551C279.121 41.551 283.338 42.6051 287.273 44.7135C291.209 46.7515 294.477 49.5275 297.077 53.0414L286.325 60.3151C283.022 56.4498 279.121 54.5172 274.623 54.5172C271.953 54.5172 269.493 55.1848 267.244 56.5201C264.995 57.8554 263.203 59.6475 261.868 61.8963C260.533 64.1452 259.865 66.6049 259.865 69.2755C259.865 71.946 260.533 74.4058 261.868 76.6546C263.203 78.9035 264.995 80.6956 267.244 82.0309C269.493 83.2959 271.953 83.9284 274.623 83.9284C279.121 83.9284 283.022 81.9957 286.325 78.1305L297.183 85.2988Z" fill="black"/>
<path d="M247.389 41.7603L246.441 54.094C246.019 53.9535 245.281 53.8832 244.227 53.8832C239.87 53.8832 236.25 55.1482 233.369 57.6782C230.558 60.2082 229.152 63.6518 229.152 68.009V95.5227H216.081V42.8145H229.152V51.6695C230.347 48.8583 232.385 46.5041 235.267 44.6066C238.148 42.7091 241.627 41.7603 245.703 41.7603H247.389Z" fill="black"/>
<path d="M118.107 58.8377C118.107 51.9505 119.794 45.5904 123.167 39.7573C126.611 33.9243 131.249 29.3211 137.082 25.9478C142.915 22.5042 149.275 20.7824 156.162 20.7824C163.19 20.7824 169.691 22.6096 175.664 26.264C181.638 29.8482 186.241 34.6271 189.474 40.6007L177.351 47.0311C175.243 43.3063 172.291 40.3195 168.496 38.0707C164.701 35.7515 160.59 34.5919 156.162 34.5919C151.805 34.5919 147.729 35.6812 143.934 37.8598C140.209 40.0384 137.258 42.9901 135.079 46.7148C132.9 50.4395 131.811 54.4805 131.811 58.8377C131.811 63.1949 132.9 67.2359 135.079 70.9606C137.258 74.6853 140.209 77.6369 143.934 79.8156C147.729 81.9942 151.805 83.0835 156.162 83.0835C160.73 83.0835 164.877 81.9239 168.601 79.6047C172.396 77.2856 175.348 74.1933 177.456 70.3281L189.579 76.9693C186.347 83.0132 181.743 87.8623 175.77 91.5168C169.796 95.1009 163.26 96.893 156.162 96.893C149.275 96.893 142.915 95.2063 137.082 91.833C131.249 88.3894 126.611 83.7511 123.167 77.9181C119.794 72.085 118.107 65.7249 118.107 58.8377Z" fill="black"/>
<path d="M194.152 95.522V42.8138H207.224V95.522H194.152Z" fill="black"/>
<path d="M210.151 24.5833C210.151 29.876 205.861 34.1666 200.568 34.1666C195.275 34.1666 190.985 29.876 190.985 24.5833C190.985 19.2906 195.275 15 200.568 15C205.861 15 210.151 19.2906 210.151 24.5833Z" fill="black"/>
</svg>
