<svg width="90" height="120" viewBox="0 0 90 120" fill="none" xmlns="http://www.w3.org/2000/svg">
<path d="M60.1724 114.7C60.1724 117.756 57.6973 120.259 54.6632 119.979C48.6641 119.424 42.7716 117.967 37.1864 115.648C29.8989 112.621 23.2773 108.184 17.6998 102.591C12.1222 96.9977 7.69777 90.3577 4.6792 83.05C1.66063 75.7422 0.106995 67.9098 0.106995 60C0.106995 52.0902 1.66063 44.2578 4.6792 36.95C7.69777 29.6423 12.1222 23.0023 17.6998 17.4092C23.2773 11.8161 29.8989 7.37945 37.1864 4.35249C42.7716 2.03258 48.6641 0.575557 54.6632 0.0214544C57.6973 -0.258784 60.1724 2.24443 60.1724 5.29979V31.1851C44.3024 31.1851 31.4373 44.0861 31.4373 60.0002C31.4373 75.9141 44.3021 88.8149 60.1718 88.8153L60.1724 31.1851C76.0424 31.1851 88.907 44.0861 88.907 60.0003C88.907 75.9142 76.0415 88.815 60.1718 88.8153L60.1724 114.7Z" fill="black"/>
<path d="M60.108 88.7999L60.1074 31.1999C76.0132 31.1999 88.907 44.0945 88.907 60.0003C88.907 75.9059 76.0135 88.7995 60.108 88.7999Z" fill="black"/>
<path d="M60.177 90.8214V114.701C60.177 117.761 57.707 120.261 54.667 119.981C48.667 119.431 42.777 117.971 37.187 115.651C29.897 112.621 23.277 108.191 17.697 102.591C12.117 97.0014 7.69699 90.3614 4.67699 83.0514C1.65699 75.7414 0.106995 67.9114 0.106995 60.0014C0.106995 52.0914 1.65699 44.2614 4.67699 36.9514C7.69699 29.6414 12.117 23.0014 17.697 17.4114C23.277 11.8214 29.897 7.38144 37.187 4.35144C42.777 2.03144 48.677 0.581444 54.677 0.0214435C57.707 -0.258556 60.187 2.24144 60.187 5.30144V31.1914C44.317 31.1914 31.447 44.0914 31.447 60.0114C31.447 75.9314 44.307 88.8214 60.177 88.8314" fill="black"/>
<path d="M60.1074 89.0532L60.1068 31.0769C76.1165 31.0769 89.0949 44.0553 89.0949 60.0651C89.0949 76.0746 76.1168 89.0529 60.1074 89.0532Z" fill="black"/>
</svg>
