<svg width="421" height="120" viewBox="0 0 421 120" fill="none" xmlns="http://www.w3.org/2000/svg">
<path d="M60.3084 114.7C60.3084 117.756 57.8333 120.259 54.7992 119.979C48.8001 119.424 42.9076 117.967 37.3224 115.648C30.0349 112.621 23.4133 108.184 17.8357 102.591C12.2581 96.9977 7.83376 90.3577 4.81519 83.05C1.79662 75.7422 0.242981 67.9098 0.242981 60C0.242981 52.0902 1.79662 44.2578 4.81519 36.95C7.83376 29.6423 12.2581 23.0023 17.8357 17.4092C23.4133 11.8161 30.0349 7.37945 37.3224 4.35249C42.9076 2.03258 48.8001 0.575557 54.7992 0.0214544C57.8333 -0.258784 60.3084 2.24443 60.3084 5.29979V31.1851C44.4384 31.1851 31.5733 44.0861 31.5733 60.0002C31.5733 75.9141 44.4381 88.8149 60.3078 88.8153L60.3084 31.1851C76.1784 31.1851 89.043 44.0861 89.043 60.0003C89.043 75.9142 76.1775 88.815 60.3078 88.8153L60.3084 114.7Z" fill="white"/>
<path d="M60.244 88.7999L60.2434 31.1999C76.1492 31.1999 89.043 44.0945 89.043 60.0003C89.043 75.9059 76.1495 88.7995 60.244 88.7999Z" fill="white"/>
<path d="M60.313 90.8214V114.701C60.313 117.761 57.843 120.261 54.803 119.981C48.803 119.431 42.913 117.971 37.323 115.651C30.033 112.621 23.413 108.191 17.833 102.591C12.253 97.0014 7.83298 90.3614 4.81298 83.0514C1.79298 75.7414 0.242981 67.9114 0.242981 60.0014C0.242981 52.0914 1.79298 44.2614 4.81298 36.9514C7.83298 29.6414 12.253 23.0014 17.833 17.4114C23.413 11.8214 30.033 7.38144 37.323 4.35144C42.913 2.03144 48.813 0.581444 54.813 0.0214435C57.843 -0.258556 60.323 2.24144 60.323 5.30144V31.1914C44.453 31.1914 31.583 44.0914 31.583 60.0114C31.583 75.9314 44.443 88.8214 60.313 88.8314" fill="white"/>
<path d="M60.2661 89.0532L60.2655 31.0769C76.2752 31.0769 89.2537 44.0553 89.2537 60.0651C89.2537 76.0746 76.2756 89.0529 60.2661 89.0532Z" fill="white"/>
<path d="M390.066 57.5727C390.066 59.0485 390.874 60.173 392.49 60.946C394.177 61.6488 396.813 62.3867 400.397 63.1598C404.473 64.0031 407.881 64.9519 410.622 66.006C413.363 67.0602 415.717 68.7469 417.685 71.066C419.723 73.3149 420.742 76.372 420.742 80.2372C420.742 83.6808 419.688 86.6676 417.58 89.1976C415.541 91.7276 412.801 93.6603 409.357 94.9955C405.913 96.2605 402.154 96.893 398.077 96.893C392.526 96.893 387.747 95.8389 383.741 93.7305C379.805 91.6222 376.889 88.6003 374.991 84.6647L385.744 79.0777C387.641 83.9268 391.753 86.3514 398.077 86.3514C400.818 86.3514 403.173 85.8243 405.14 84.7702C407.108 83.716 408.092 82.205 408.092 80.2372C408.092 78.5506 407.178 77.3207 405.351 76.5477C403.594 75.7043 400.713 74.7907 396.707 73.8068C392.561 72.823 389.187 71.8391 386.587 70.8552C383.987 69.8713 381.738 68.3603 379.84 66.3223C377.943 64.214 376.994 61.438 376.994 57.9944C376.994 54.6211 377.943 51.7045 379.84 49.2448C381.738 46.7148 384.303 44.7822 387.536 43.4469C390.769 42.1117 394.318 41.444 398.183 41.444C402.751 41.444 406.827 42.3928 410.411 44.2903C414.066 46.1878 416.877 48.8934 418.845 52.4073L408.197 57.7836C406.37 53.848 403.032 51.8802 398.183 51.8802C395.723 51.8802 393.755 52.4073 392.28 53.4615C390.804 54.4454 390.066 55.8158 390.066 57.5727Z" fill="white"/>
<path d="M348.166 41.444C353.226 41.444 357.759 42.709 361.765 45.239C365.841 47.6987 369.004 51.0369 371.252 55.2536C373.501 59.4702 374.626 64.1437 374.626 69.2739C374.626 70.9606 374.485 72.5067 374.204 73.9123H333.513C334.568 77.637 336.43 80.5535 339.101 82.6618C341.771 84.6999 345.18 85.7189 349.326 85.7189C351.856 85.7189 354.28 85.1567 356.6 84.0322C358.989 82.9078 360.781 81.4671 361.976 79.7102L371.99 85.6135C369.531 89.2679 366.333 92.079 362.398 94.0468C358.532 95.9443 354.07 96.893 349.01 96.893C343.387 96.893 338.398 95.6983 334.041 93.3089C329.683 90.9194 326.31 87.6164 323.921 83.3997C321.601 79.1831 320.442 74.4393 320.442 69.1685C320.442 63.968 321.601 59.2594 323.921 55.0427C326.31 50.8261 329.613 47.523 333.83 45.1336C338.046 42.6739 342.825 41.444 348.166 41.444ZM362.398 63.6869C361.835 60.3135 360.254 57.6781 357.654 55.7806C355.124 53.8129 351.926 52.829 348.061 52.829C345.39 52.829 342.931 53.3209 340.682 54.3048C338.503 55.2887 336.746 56.624 335.411 58.3106C334.076 59.9973 333.373 61.7894 333.303 63.6869H362.398Z" fill="white"/>
<path d="M313.506 80.6593C313.506 81.7838 313.787 82.592 314.35 83.0839C314.912 83.5758 315.79 83.8218 316.985 83.8218C317.899 83.8218 318.988 83.7164 320.253 83.5056V95.523C317.653 95.9447 315.228 96.1555 312.979 96.1555C308.903 96.1555 305.776 95.1014 303.597 92.993C301.489 90.8144 300.435 86.9843 300.435 81.5027V21.7316H313.506V80.6593Z" fill="white"/>
<path d="M297.319 85.2988C294.718 88.8829 291.45 91.7292 287.515 93.8375C283.579 95.9458 279.327 97 274.759 97C269.77 97 265.131 95.7701 260.845 93.3104C256.628 90.7804 253.255 87.4071 250.725 83.1905C248.265 78.9035 247.035 74.2652 247.035 69.2755C247.035 64.2858 248.265 59.6826 250.725 55.4659C253.255 51.179 256.628 47.8057 260.845 45.346C265.131 42.816 269.77 41.551 274.759 41.551C279.257 41.551 283.474 42.6051 287.409 44.7135C291.345 46.7515 294.613 49.5275 297.213 53.0414L286.461 60.3151C283.158 56.4498 279.257 54.5172 274.759 54.5172C272.089 54.5172 269.629 55.1848 267.38 56.5201C265.131 57.8554 263.339 59.6475 262.004 61.8963C260.669 64.1452 260.001 66.6049 260.001 69.2755C260.001 71.946 260.669 74.4057 262.004 76.6546C263.339 78.9035 265.131 80.6956 267.38 82.0309C269.629 83.2959 272.089 83.9284 274.759 83.9284C279.257 83.9284 283.158 81.9957 286.461 78.1305L297.319 85.2988Z" fill="white"/>
<path d="M247.525 41.7603L246.577 54.094C246.155 53.9535 245.417 53.8832 244.363 53.8832C240.006 53.8832 236.386 55.1482 233.505 57.6782C230.694 60.2082 229.288 63.6518 229.288 68.009V95.5227H216.217V42.8145H229.288V51.6695C230.483 48.8584 232.521 46.5041 235.402 44.6066C238.284 42.7091 241.763 41.7603 245.839 41.7603H247.525Z" fill="white"/>
<path d="M118.243 58.8377C118.243 51.9505 119.93 45.5904 123.303 39.7573C126.747 33.9243 131.385 29.3211 137.218 25.9478C143.051 22.5042 149.411 20.7824 156.298 20.7824C163.326 20.7824 169.827 22.6096 175.8 26.264C181.774 29.8482 186.377 34.6271 189.61 40.6007L177.487 47.0311C175.379 43.3063 172.427 40.3195 168.632 38.0707C164.837 35.7515 160.726 34.5919 156.298 34.5919C151.941 34.5919 147.865 35.6812 144.07 37.8598C140.345 40.0384 137.394 42.9901 135.215 46.7148C133.036 50.4395 131.947 54.4805 131.947 58.8377C131.947 63.1949 133.036 67.2359 135.215 70.9606C137.394 74.6853 140.345 77.6369 144.07 79.8156C147.865 81.9942 151.941 83.0835 156.298 83.0835C160.866 83.0835 165.013 81.9239 168.737 79.6047C172.532 77.2856 175.484 74.1933 177.592 70.3281L189.715 76.9693C186.482 83.0132 181.879 87.8623 175.906 91.5168C169.932 95.1009 163.396 96.893 156.298 96.893C149.411 96.893 143.051 95.2063 137.218 91.833C131.385 88.3894 126.747 83.7511 123.303 77.9181C119.93 72.085 118.243 65.7249 118.243 58.8377Z" fill="white"/>
<path d="M194.288 95.522V42.8138H207.36V95.522H194.288Z" fill="white"/>
<path d="M210.287 24.5833C210.287 29.876 205.997 34.1666 200.704 34.1666C195.411 34.1666 191.121 29.876 191.121 24.5833C191.121 19.2906 195.411 15 200.704 15C205.997 15 210.287 19.2906 210.287 24.5833Z" fill="white"/>
</svg>
