<svg width="90" height="121" viewBox="0 0 90 121" fill="none" xmlns="http://www.w3.org/2000/svg">
<path d="M60.07 91.4865V115.366C60.07 118.426 57.6 120.926 54.56 120.646C48.56 120.096 42.67 118.636 37.08 116.316C29.79 113.286 23.17 108.856 17.59 103.256C12.01 97.6665 7.59 91.0265 4.57 83.7165C1.55 76.4065 0 68.5765 0 60.6665C0 52.7565 1.55 44.9265 4.57 37.6165C7.59 30.3065 12.01 23.6665 17.59 18.0765C23.17 12.4865 29.79 8.04648 37.08 5.01648C42.67 2.69648 48.57 1.24648 54.57 0.686483C57.6 0.406483 60.08 2.90648 60.08 5.96648V31.8565C44.21 31.8565 31.34 44.7565 31.34 60.6765C31.34 76.5965 44.2 89.4865 60.07 89.4965" fill="white"/>
<path d="M60.0232 89.7182L60.0225 31.7419C76.0322 31.7419 89.0107 44.7204 89.0107 60.7301C89.0107 76.7396 76.0326 89.7179 60.0232 89.7182Z" fill="#FF491B"/>
</svg>
