<svg width="90" height="121" viewBox="0 0 90 121" fill="none" xmlns="http://www.w3.org/2000/svg">
<path d="M60.313 91.4865V115.366C60.313 118.426 57.843 120.926 54.803 120.646C48.803 120.096 42.913 118.636 37.323 116.316C30.033 113.286 23.413 108.856 17.833 103.256C12.253 97.6665 7.83298 91.0265 4.81298 83.7165C1.79298 76.4065 0.242981 68.5765 0.242981 60.6665C0.242981 52.7565 1.79298 44.9265 4.81298 37.6165C7.83298 30.3065 12.253 23.6665 17.833 18.0765C23.413 12.4865 30.033 8.04648 37.323 5.01648C42.913 2.69648 48.813 1.24648 54.813 0.686483C57.843 0.406483 60.323 2.90648 60.323 5.96648V31.8565C44.453 31.8565 31.583 44.7565 31.583 60.6765C31.583 76.5965 44.443 89.4865 60.313 89.4965" fill="white"/>
<path d="M60.2661 89.7182L60.2655 31.7419C76.2752 31.7419 89.2537 44.7204 89.2537 60.7301C89.2537 76.7396 76.2756 89.7179 60.2661 89.7182Z" fill="white"/>
</svg>
